<svg width="182" height="49" viewBox="0 0 182 49" fill="none" xmlns="http://www.w3.org/2000/svg">
<path d="M53.6306 16.2987C53.6306 17.9776 53.378 19.6515 52.8728 21.2512C51.818 24.5743 49.6636 26.8425 47.2666 29.2594C41.487 35.0983 35.6332 40.8581 29.8635 46.702C29.4574 47.1131 29.0563 47.5192 28.6502 47.9303C27.3427 49.2575 26.5355 49.4358 25.1389 48.0095C18.2648 40.9968 11.1728 34.192 4.37799 27.105C-0.92118 21.578 -1.38672 13.2628 2.85262 7.17122C7.19596 0.921167 14.8525 -1.39165 22.0188 1.4808C23.1133 1.92157 25.2874 2.35244 24.5297 3.75399C23.8512 5.00698 23.3114 7.77047 20.1269 6.27482C15.3329 4.02143 9.8604 5.88852 6.95824 10.113C4.03627 14.3573 4.41761 19.9338 8.18151 23.8067C13.763 29.5565 19.5178 35.1479 25.1537 40.8531C26.268 41.9823 26.9713 42.4429 28.353 41.0067C33.9989 35.1677 39.8824 29.5615 45.5035 23.6977C49.8617 19.1513 49.5646 12.51 45.0974 8.24591C41.0958 4.42753 34.4149 4.4523 30.3489 8.30534C26.1393 12.2971 26.1442 18.7799 30.4083 23.4847C31.8445 25.0695 33.2907 26.6791 34.925 28.041C36.6881 29.507 36.1334 30.4182 34.7913 31.8148C33.3649 33.2956 32.528 33.1322 31.2899 31.6861C29.8239 29.9824 28.0806 28.5165 26.5454 26.8673C21.5384 21.4839 20.6667 13.4064 24.4009 7.45351C27.9667 1.76804 35.2964 -1.02021 41.8387 0.817164C47.2716 2.34749 51.6397 6.45806 53.0808 11.9652C53.4424 13.3767 53.6306 14.8377 53.6256 16.2937L53.6306 16.2987Z" fill="url(#paint0_linear_4_95)"/>
<path d="M50.2778 3.41228C50.4907 3.4618 51.8081 2.32273 52.0706 2.16425C52.7144 1.78291 53.378 1.45109 54.0714 1.1688C55.4284 0.614118 56.8596 0.252586 58.3157 0.0941063C61.203 -0.217901 64.1745 0.277349 66.7993 1.52538C72.1282 4.0561 75.6296 9.68214 75.7237 15.5608C75.7782 18.9631 74.6936 22.3605 72.7126 25.1191C71.6379 26.6147 70.2413 27.8875 68.9635 29.2049C67.5521 30.6609 66.1208 32.107 64.6895 33.5482C59.9054 38.3571 55.052 43.0917 50.2877 47.9204C49.2526 48.9703 48.6633 49.0396 47.6529 47.9451C45.7413 45.875 43.7256 43.8989 41.6901 41.9477C40.4273 40.7343 39.3228 39.9567 41.2593 38.0451C43.161 36.1681 43.9188 37.1437 45.2064 38.4413C48.9356 42.2052 48.9654 42.1705 52.7887 38.3422C57.652 33.4739 62.555 28.6502 67.3738 23.7373C71.4101 19.6268 71.935 14.1047 68.8447 9.57814C65.8583 5.19518 60.1382 3.49152 55.0718 6.03215C51.501 7.82 52.1845 3.85305 50.2827 3.41723L50.2778 3.41228Z" fill="white"/>
<path d="M37.6241 20.4736C34.9349 20.3201 32.8648 17.933 33.048 15.2042C33.2412 12.3763 35.4153 10.5389 38.3175 10.7618C41.0463 10.9698 42.8144 12.9607 42.7252 15.7242C42.641 18.4382 40.2886 20.6321 37.6192 20.4736H37.6241Z" fill="white"/>
<path d="M98.2129 6.08663C96.9203 4.84851 94.9938 4.16011 93.3149 4.16011C89.1895 4.16011 86.6835 7.29504 86.6835 11.262C86.6835 14.4266 88.5259 17.7002 93.3149 17.7002C94.8304 17.7002 96.1478 17.3684 97.6632 16.16V12.7477H92.7355V9.4989H100.991V17.616C99.0895 19.7902 96.6975 21.0828 93.3149 21.0828C86.0793 21.0828 83.1326 16.3234 83.1326 11.262C83.1326 5.84396 86.5152 0.832031 93.3149 0.832031C95.9001 0.832031 98.4853 1.82253 100.466 3.77877L98.2129 6.09158V6.08663Z" fill="#E92729"/>
<path d="M122.896 11.1233C122.842 16.1055 119.786 21.0828 113.016 21.0828C106.246 21.0828 103.111 16.2145 103.111 11.153C103.111 6.09159 106.36 1.00043 113.016 1.00043C119.647 1.00043 122.946 6.08664 122.896 11.1233ZM106.687 11.2075C106.771 14.3722 108.475 17.7547 113.016 17.7547C117.557 17.7547 119.261 14.3425 119.316 11.1778C119.37 7.92897 117.552 4.29879 113.016 4.29879C108.479 4.29879 106.607 7.95868 106.687 11.2075Z" fill="#E92729"/>
<path d="M100.333 38.1937C100.417 43.062 97.4453 47.9897 90.7 47.9897H83.1326V28.7294H90.7C97.3017 28.7294 100.248 33.4343 100.333 38.1986V38.1937ZM86.743 44.4932H90.705C95.078 44.4932 96.8114 41.3038 96.7322 38.1639C96.648 35.1627 94.8898 32.1665 90.705 32.1665H86.743V44.4932Z" fill="white"/>
<path d="M125.452 32.0328H119.345V28.7344H135.193V32.0328H129.087V47.9897H125.452V32.0328Z" fill="white"/>
<path d="M137.422 47.9897V28.7294H141.027V47.9897H137.422Z" fill="white"/>
<path d="M157.093 28.6997H160.728V47.9897H158.47V48.0194L148.342 35.0043V47.9897H144.707V28.7295H147.654L157.093 40.6699V28.6997Z" fill="white"/>
<path d="M178.364 33.4343C177.072 32.1962 175.145 31.5078 173.466 31.5078C169.341 31.5078 166.835 34.6427 166.835 38.6097C166.835 41.7743 168.677 45.0479 173.466 45.0479C174.982 45.0479 176.299 44.7161 177.814 43.5077V40.0954H172.887V36.8466H181.143V44.9637C179.241 47.1379 176.849 48.4305 173.466 48.4305C166.231 48.4305 163.284 43.6711 163.284 38.6097C163.284 33.1916 166.666 28.1797 173.466 28.1797C176.051 28.1797 178.637 29.1702 180.618 31.1265L178.364 33.4393V33.4343Z" fill="white"/>
<path d="M113.348 28.7294H109.386L100.744 47.9897H104.681L111.367 32.7756L118.028 47.9897H121.985L113.348 28.7294Z" fill="white"/>
<defs>
<linearGradient id="paint0_linear_4_95" x1="-1.63677e-05" y1="24.6288" x2="53.6306" y2="24.6288" gradientUnits="userSpaceOnUse">
<stop stop-color="#E92729"/>
<stop offset="1" stop-color="#931C1F"/>
</linearGradient>
</defs>
</svg>
